<?xml version="1.0" standalone="no"?>
<!DOCTYPE svg PUBLIC "-//W3C//DTD SVG 20010904//EN"
 "http://www.w3.org/TR/2001/REC-SVG-20010904/DTD/svg10.dtd">
<svg version="1.0" xmlns="http://www.w3.org/2000/svg"
 width="150.000000pt" height="150.000000pt" viewBox="0 0 150.000000 150.000000"
 preserveAspectRatio="xMidYMid meet">
<metadata>
Created by potrace 1.12, written by Peter Selinger 2001-2015
</metadata>
<g transform="translate(0.000000,150.000000) scale(0.100000,-0.100000)"
fill="#000000" stroke="none">
<path d="M0 750 l0 -750 750 0 750 0 0 750 0 750 -750 0 -750 0 0 -750z m855
346 c91 -43 145 -126 145 -226 0 -67 -23 -119 -79 -184 -23 -26 -45 -61 -48
-77 -7 -38 -23 -47 -23 -14 0 33 14 60 57 109 96 107 98 232 5 325 -88 87
-213 96 -305 20 -56 -46 -81 -101 -81 -179 0 -73 14 -108 70 -169 41 -46 70
-109 56 -123 -6 -6 -14 3 -22 27 -6 20 -30 56 -51 81 -63 73 -74 100 -74 184
0 57 5 84 22 115 64 119 208 168 328 111z m-75 -152 c0 -27 -20 -74 -31 -74
-12 0 -29 36 -29 62 0 13 7 34 17 47 15 23 17 23 30 6 7 -11 13 -29 13 -41z
m-64 -68 c28 -23 28 -24 32 -175 l4 -151 54 0 c30 0 54 -4 54 -10 0 -6 -43
-10 -110 -10 -67 0 -110 4 -110 10 0 6 20 10 45 10 38 0 45 3 45 19 0 11 -13
29 -30 41 -24 17 -30 29 -30 57 0 27 3 34 15 29 43 -17 47 -15 17 11 -24 21
-32 36 -32 61 0 36 6 39 38 16 12 -8 22 -11 22 -5 0 5 -13 19 -30 31 -23 17
-30 29 -30 56 0 40 9 42 46 10z m114 -10 c0 -25 -7 -40 -26 -55 -36 -28 -44
-26 -44 9 0 30 37 80 60 80 5 0 10 -15 10 -34z m0 -100 c0 -25 -7 -40 -26 -55
-36 -28 -44 -26 -44 9 0 30 37 80 60 80 5 0 10 -15 10 -34z m0 -100 c0 -25 -7
-40 -26 -55 -37 -29 -44 -26 -44 13 0 25 7 40 26 55 37 29 44 26 44 -13z m30
-166 c0 -6 -43 -10 -110 -10 -67 0 -110 4 -110 10 0 6 43 10 110 10 67 0 110
-4 110 -10z m-18 -47 c-10 -52 -63 -90 -110 -78 -33 8 -72 50 -72 77 0 22 2
23 92 21 83 -2 93 -4 90 -20z"/>
<path d="M680 447 c0 -44 83 -66 120 -32 38 34 26 45 -50 45 -52 0 -70 -3 -70
-13z"/>
</g>
</svg>
